<?xml version="1.0" encoding="UTF-8" standalone="no"?>
<!-- Created with Inkscape (http://www.inkscape.org/) -->

<svg
   xmlns:dc="http://purl.org/dc/elements/1.1/"
   xmlns:cc="http://creativecommons.org/ns#"
   xmlns:rdf="http://www.w3.org/1999/02/22-rdf-syntax-ns#"
   xmlns:svg="http://www.w3.org/2000/svg"
   xmlns="http://www.w3.org/2000/svg"
   xmlns:sodipodi="http://sodipodi.sourceforge.net/DTD/sodipodi-0.dtd"
   xmlns:inkscape="http://www.inkscape.org/namespaces/inkscape"
   width="110.94027"
   height="33.048519"
   id="svg2"
   version="1.1"
   inkscape:version="0.48.4 r9939"
   sodipodi:docname="New document 1">
  <defs
     id="defs4" />
  <sodipodi:namedview
     id="base"
     pagecolor="#ffffff"
     bordercolor="#666666"
     borderopacity="1.0"
     inkscape:pageopacity="0.0"
     inkscape:pageshadow="2"
     inkscape:zoom="2.8"
     inkscape:cx="74.270499"
     inkscape:cy="-6.9201337"
     inkscape:document-units="px"
     inkscape:current-layer="layer1"
     showgrid="true"
     showguides="false"
     fit-margin-top="0"
     fit-margin-left="0"
     fit-margin-right="0"
     fit-margin-bottom="0"
     inkscape:window-width="1366"
     inkscape:window-height="713"
     inkscape:window-x="0"
     inkscape:window-y="30"
     inkscape:window-maximized="1">
    <inkscape:grid
       type="xygrid"
       id="grid3032"
       empspacing="5"
       visible="true"
       enabled="true"
       snapvisiblegridlinesonly="true"
       originx="-247.07423px"
       originy="-429.82141px" />
  </sodipodi:namedview>
  <metadata
     id="metadata7">
    <rdf:RDF>
      <cc:Work
         rdf:about="">
        <dc:format>image/svg+xml</dc:format>
        <dc:type
           rdf:resource="http://purl.org/dc/dcmitype/StillImage" />
        <dc:title></dc:title>
      </cc:Work>
    </rdf:RDF>
  </metadata>
  <g
     inkscape:label="Layer 1"
     inkscape:groupmode="layer"
     id="layer1"
     transform="translate(-247.07423,-589.49225)">
    <path
       id="path2990"
       style="font-size:40px;font-style:normal;font-variant:normal;font-weight:normal;font-stretch:normal;text-align:start;line-height:125%;letter-spacing:0px;word-spacing:0px;writing-mode:lr-tb;text-anchor:start;fill:#000000;fill-opacity:1;stroke:none;font-family:Roboto;-inkscape-font-specification:Roboto Semi-Light"
       d="m 250.82423,620.93363 -3.75,0 0,-28.4375 3.75,0 0,28.4375"
       inkscape:connector-curvature="0" />
    <path
       id="path2992"
       style="font-size:40px;font-style:normal;font-variant:normal;font-weight:normal;font-stretch:normal;text-align:start;line-height:125%;letter-spacing:0px;word-spacing:0px;writing-mode:lr-tb;text-anchor:start;fill:#000000;fill-opacity:1;stroke:none;font-family:Roboto;-inkscape-font-specification:Roboto Semi-Light"
       d="m 270.80301,609.62224 0,11.13281 -3.75,0 0,-28.4375 10.48828,0 c 3.11197,3e-5 5.54686,0.7943 7.30469,2.38281 1.77081,1.58857 2.65623,3.69143 2.65625,6.3086 -2e-5,2.76043 -0.86591,4.88934 -2.59765,6.38672 -1.71877,1.48438 -4.18622,2.22657 -7.40235,2.22656 l -6.69922,0 m 0,-3.06641 6.73828,0 c 2.0052,2e-5 3.54165,-0.46873 4.60938,-1.40625 1.06769,-0.9505 1.60154,-2.31769 1.60156,-4.10156 -2e-5,-1.69269 -0.53387,-3.04685 -1.60156,-4.0625 -1.06773,-1.0156 -2.53257,-1.54294 -4.39453,-1.58203 l -6.95313,0 0,11.15234"
       inkscape:connector-curvature="0" />
    <path
       id="path2996"
       style="font-size:40px;font-style:normal;font-variant:normal;font-weight:normal;font-stretch:normal;text-align:start;line-height:125%;letter-spacing:0px;word-spacing:0px;writing-mode:lr-tb;text-anchor:start;fill:#000000;fill-opacity:1;stroke:none;font-family:Roboto;-inkscape-font-specification:Roboto Semi-Light"
       d="m 347.46763,608.61499 c -3.21616,-0.92447 -5.5599,-2.05728 -7.03125,-3.39844 -1.45834,-1.35415 -2.1875,-3.02081 -2.1875,-5 0,-2.23956 0.89192,-4.08851 2.67578,-5.54687 1.79687,-1.47133 4.1276,-2.207 6.99219,-2.20703 1.95311,3e-5 3.69139,0.37763 5.21484,1.13281 1.53644,0.75523 2.72134,1.7969 3.55469,3.125 0.84633,1.32815 1.26951,2.77997 1.26953,4.35547 l -3.76953,0 c -2e-5,-1.71873 -0.54689,-3.06639 -1.64063,-4.04297 -1.09376,-0.98956 -2.63673,-1.48435 -4.6289,-1.48438 -1.84897,3e-5 -3.29428,0.41019 -4.33594,1.23047 -1.02865,0.80732 -1.54297,1.93362 -1.54297,3.37891 0,1.15887 0.48828,2.14195 1.46485,2.94922 0.98957,0.79429 2.66275,1.52345 5.01953,2.1875 2.36977,0.66408 4.21873,1.39975 5.54687,2.20703 1.34113,0.79428 2.33071,1.72527 2.96875,2.79297 0.65102,1.06772 0.97654,2.32423 0.97656,3.76953 -2e-5,2.30469 -0.89845,4.15365 -2.69531,5.54687 -1.79689,1.38021 -4.19923,2.07032 -7.20703,2.07032 -1.95314,0 -3.77605,-0.3711 -5.46875,-1.11328 -1.69271,-0.75521 -3.00131,-1.78386 -3.92578,-3.08594 -0.91146,-1.30208 -1.36719,-2.77994 -1.36719,-4.4336 l 3.76953,0 c 0,1.71876 0.63151,3.07944 1.89453,4.08204 1.27604,0.98958 2.97525,1.48437 5.09766,1.48437 1.97915,0 3.49608,-0.40364 4.55078,-1.21094 1.05467,-0.80728 1.58201,-1.90754 1.58203,-3.30078 -2e-5,-1.39322 -0.4883,-2.46744 -1.46484,-3.22265 -0.97658,-0.76822 -2.74741,-1.52343 -5.3125,-2.26563"
       inkscape:connector-curvature="0" />
    <g
       id="g3034"
       transform="translate(11.142857,-1.2499996)">
      <path
         sodipodi:nodetypes="cccccccc"
         inkscape:connector-curvature="0"
         d="m 309.82143,623.79077 -3.76953,0 -14.31641,-21.91406 0,21.91406 -3.76953,0 0,-28.4375 3.76953,0 18.08594,28.4375"
         style="font-size:40px;font-style:normal;font-variant:normal;font-weight:normal;font-stretch:normal;text-align:start;line-height:125%;letter-spacing:0px;word-spacing:0px;writing-mode:lr-tb;text-anchor:start;fill:#000000;fill-opacity:1;stroke:none;font-family:Roboto;-inkscape-font-specification:Roboto Semi-Light"
         id="path2994" />
      <path
         sodipodi:nodetypes="cccccccc"
         inkscape:connector-curvature="0"
         d="m 292.21651,590.74225 3.76953,0 14.3164,21.91406 1e-5,-21.91406 3.76952,0 10e-6,28.4375 -3.76954,0 -18.08593,-28.4375"
         style="font-size:40px;font-style:normal;font-variant:normal;font-weight:normal;font-stretch:normal;text-align:start;line-height:125%;letter-spacing:0px;word-spacing:0px;writing-mode:lr-tb;text-anchor:start;fill:#000000;fill-opacity:1;stroke:none;font-family:Roboto;-inkscape-font-specification:Roboto Semi-Light"
         id="path2994-0" />
    </g>
  </g>
</svg>
